<svg aria-hidden="true" style="position: absolute; width: 0; height: 0; overflow: hidden;" version="1.1" xmlns="http://www.w3.org/2000/svg" xmlns:xlink="http://www.w3.org/1999/xlink">
<defs>
<symbol id="message-circle" viewBox="0 0 32 32">
<path fill="none" stroke="#bdbdbd" style="stroke: var(--color1, #bdbdbd)" stroke-linejoin="round" stroke-linecap="round" stroke-miterlimit="4" stroke-width="1.3333" d="M4 15.333c-0.005 1.76 0.407 3.496 1.2 5.067 1.919 3.839 5.841 6.265 10.133 6.267 1.76 0.005 3.496-0.407 5.067-1.2l7.6 2.533-2.533-7.6c0.793-1.571 1.205-3.307 1.2-5.067-0.002-4.292-2.428-8.215-6.267-10.133-1.571-0.793-3.307-1.205-5.067-1.2h-0.667c-5.754 0.317-10.349 4.912-10.667 10.667v0.667z"></path>
</symbol>
<symbol id="map-pin" viewBox="0 0 32 32">
<path fill="none" stroke="#bdbdbd" style="stroke: var(--color1, #bdbdbd)" stroke-linejoin="round" stroke-linecap="round" stroke-miterlimit="4" stroke-width="1.3333" d="M26.667 13.818c0 7.636-10.667 14.182-10.667 14.182s-10.667-6.545-10.667-14.182c0-5.422 4.776-9.818 10.667-9.818s10.667 4.396 10.667 9.818v0z"></path>
<path fill="none" stroke="#bdbdbd" style="stroke: var(--color1, #bdbdbd)" stroke-linejoin="round" stroke-linecap="round" stroke-miterlimit="4" stroke-width="1.3333" d="M16 18.667c2.209 0 4-1.791 4-4s-1.791-4-4-4-4 1.791-4 4c0 2.209 1.791 4 4 4z"></path>
</symbol>
<symbol id="trash-2" viewBox="0 0 32 32">
<path fill="none" stroke="#bdbdbd" style="stroke: var(--color1, #bdbdbd)" stroke-linejoin="round" stroke-linecap="round" stroke-miterlimit="4" stroke-width="1.3333" d="M4 8h24"></path>
<path fill="#bdbdbd" style="fill: var(--color1, #bdbdbd)" d="M26 8c0-0.368-0.299-0.667-0.667-0.667s-0.667 0.298-0.667 0.667h1.333zM7.333 8c0-0.368-0.298-0.667-0.667-0.667s-0.667 0.298-0.667 0.667h1.333zM10 8c0 0.368 0.298 0.667 0.667 0.667s0.667-0.298 0.667-0.667h-1.333zM20.667 8c0 0.368 0.299 0.667 0.667 0.667s0.667-0.298 0.667-0.667h-1.333zM24.667 8v18.667h1.333v-18.667h-1.333zM24.667 26.667c0 1.105-0.895 2-2 2v1.333c1.841 0 3.333-1.492 3.333-3.333h-1.333zM22.667 28.667h-13.333v1.333h13.333v-1.333zM9.333 28.667c-1.105 0-2-0.895-2-2h-1.333c0 1.841 1.492 3.333 3.333 3.333v-1.333zM7.333 26.667v-18.667h-1.333v18.667h1.333zM11.333 8v-2.667h-1.333v2.667h1.333zM11.333 5.333c0-1.105 0.895-2 2-2v-1.333c-1.841 0-3.333 1.492-3.333 3.333h1.333zM13.333 3.333h5.333v-1.333h-5.333v1.333zM18.667 3.333c1.105 0 2 0.895 2 2h1.333c0-1.841-1.492-3.333-3.333-3.333v1.333zM20.667 5.333v2.667h1.333v-2.667h-1.333z"></path>
<path fill="none" stroke="#bdbdbd" style="stroke: var(--color1, #bdbdbd)" stroke-linejoin="round" stroke-linecap="round" stroke-miterlimit="4" stroke-width="1.3333" d="M13.333 14.667v8"></path>
<path fill="none" stroke="#bdbdbd" style="stroke: var(--color1, #bdbdbd)" stroke-linejoin="round" stroke-linecap="round" stroke-miterlimit="4" stroke-width="1.3333" d="M18.667 14.667v8"></path>
</symbol>
<symbol id="user" viewBox="0 0 32 32">
<path stroke-linejoin="round" stroke-linecap="round" stroke-miterlimit="4" stroke-width="1.3333" d="M26.667 28v-2.667c0-2.945-2.388-5.333-5.333-5.333h-10.667c-2.946 0-5.333 2.388-5.333 5.333v2.667"></path>
<path stroke-linejoin="round" stroke-linecap="round" stroke-miterlimit="4" stroke-width="1.3333" d="M16 14.667c2.945 0 5.333-2.388 5.333-5.333s-2.388-5.333-5.333-5.333c-2.946 0-5.333 2.388-5.333 5.333s2.388 5.333 5.333 5.333z"></path>
</symbol>
<symbol id="new" viewBox="0 0 56 32">
<path fill="#ff6c00" style="fill: var(--color2, #ff6c00)" d="M16 0h24c8.837 0 16 7.163 16 16s-7.163 16-16 16h-24c-8.837 0-16-7.163-16-16s7.163-16 16-16z"></path>
<path fill="#fff" style="fill: var(--color3, #fff)" d="M28.4 10.8h-0.8v4.8h-4.8v0.8h4.8v4.8h0.8v-4.8h4.8v-0.8h-4.8v-4.8z"></path>
</symbol>
<symbol id="grid" viewBox="0 0 32 32">
<path fill="#fff" style="fill: var(--color3, #fff)" d="M0 0h32v32h-32v-32z"></path>
<path fill="none" stroke="#212121" style="stroke: var(--color4, #212121)" stroke-linejoin="round" stroke-linecap="round" stroke-miterlimit="4" stroke-width="1.3333" d="M4 4h9.333v9.333h-9.333v-9.333z"></path>
<path fill="none" stroke="#212121" style="stroke: var(--color4, #212121)" stroke-linejoin="round" stroke-linecap="round" stroke-miterlimit="4" stroke-width="1.3333" d="M18.667 4h9.333v9.333h-9.333v-9.333z"></path>
<path fill="none" stroke="#212121" style="stroke: var(--color4, #212121)" stroke-linejoin="round" stroke-linecap="round" stroke-miterlimit="4" stroke-width="1.3333" d="M18.667 18.667h9.333v9.333h-9.333v-9.333z"></path>
<path fill="none" stroke="#212121" style="stroke: var(--color4, #212121)" stroke-linejoin="round" stroke-linecap="round" stroke-miterlimit="4" stroke-width="1.3333" d="M4 18.667h9.333v9.333h-9.333v-9.333z"></path>
</symbol>
<symbol id="log-out" viewBox="0 0 32 32">
<path fill="none" stroke="#bdbdbd" style="stroke: var(--color1, #bdbdbd)" stroke-linejoin="round" stroke-linecap="round" stroke-miterlimit="4" stroke-width="1.3333" d="M13.333 29.333h-6.667c-1.473 0-2.667-1.194-2.667-2.667v-21.333c0-1.473 1.194-2.667 2.667-2.667h6.667"></path>
<path fill="none" stroke="#bdbdbd" style="stroke: var(--color1, #bdbdbd)" stroke-linejoin="round" stroke-linecap="round" stroke-miterlimit="4" stroke-width="1.3333" d="M22.667 21.333l5.333-5.333-5.333-5.333"></path>
<path fill="none" stroke="#bdbdbd" style="stroke: var(--color1, #bdbdbd)" stroke-linejoin="round" stroke-linecap="round" stroke-miterlimit="4" stroke-width="1.3333" d="M28 16h-16"></path>
</symbol>
</defs>
</svg>
